<svg width="24" height="24" viewBox="0 0 24 24" fill="none" xmlns="http://www.w3.org/2000/svg">
<path d="M12.7506 7.75777C12.7506 7.34355 12.4149 7.00774 12.0006 7.00772C11.5864 7.00769 11.2506 7.34345 11.2506 7.75767L11.2504 11.2506L7.75709 11.2506C7.34288 11.2506 7.00709 11.5864 7.00709 12.0006C7.00709 12.4149 7.34288 12.7506 7.75709 12.7506H11.2503L11.25 16.2431C11.25 16.6574 11.5857 16.9932 12 16.9932C12.4142 16.9932 12.75 16.6575 12.75 16.2432L12.7503 12.7506H16.2424C16.6566 12.7506 16.9924 12.4149 16.9924 12.0006C16.9924 11.5864 16.6566 11.2506 16.2424 11.2506H12.7504L12.7506 7.75777Z" />
<path fill-rule="evenodd" clip-rule="evenodd" d="M3 12C3 7.02944 7.02944 3 12 3C16.9706 3 21 7.02944 21 12C21 16.9706 16.9706 21 12 21C7.02944 21 3 16.9706 3 12ZM12 20C7.58172 20 4 16.4183 4 12C4 7.58172 7.58172 4 12 4C16.4183 4 20 7.58172 20 12C20 16.4183 16.4183 20 12 20Z" fill="#087DAE"/>
</svg>
